Coordinates
version=1
nRows=24
nColumns=24
inDegrees=yes

Units are S.I. units (second, meters, Newtons, ...)
Angles are in degrees.

endheader
time	pelvis_tilt	pelvis_list	pelvis_rotation	pelvis_tx	pelvis_ty	pelvis_tz	hip_flexion_r	hip_adduction_r	hip_rotation_r	knee_angle_r	ankle_angle_r	subtalar_angle_r	mtp_angle_r	hip_flexion_l	hip_adduction_l	hip_rotation_l	knee_angle_l	ankle_angle_l	subtalar_angle_l	mtp_angle_l	lumbar_extension	lumbar_bending	lumbar_rotation
      0.70500000	     -4.75586808	      1.14631491	      3.02812943	     -0.41965727	      1.06146795	      0.27445030	     16.49455808	      2.09369809	     -2.43313511	    -23.87822936	     13.05636968	     -6.13859211	      2.94739624	     24.20596865	     -3.28876209	     -5.73568751	    -70.95893010	      9.61146331	      5.86564448	      1.19075078	    -11.30024927	      1.95901972	      0.12970503
      0.70916667	     -4.70283378	      1.25461126	      2.93031532	     -0.41449640	      1.06259234	      0.27472119	     15.93833035	      2.02049973	     -2.38168765	    -23.47630625	     13.09188626	     -6.02994132	      2.94079917	     24.59007245	     -3.18570463	     -5.90147689	    -70.30437704	      9.87104741	      6.12690047	      1.21858038	    -11.39866124	      1.78398845	      0.30487044
      0.71333333	     -4.64441699	      1.35692793	      2.82598391	     -0.40935164	      1.06368623	      0.27497523	     15.37817265	      1.95476782	     -2.31218230	    -23.07409211	     13.13471939	     -5.93071895	      2.93376804	     24.95325074	     -3.08460993	     -6.06361000	    -69.59663600	     10.11277728	      6.37715135	      1.25049613	    -11.52089757	      1.64116011	      0.53052211
      0.71750000	     -4.57935690	      1.45056776	      2.71491240	     -0.40420032	      1.06474678	      0.27524509	     14.80726321	      1.89758808	     -2.24870747	    -22.66092815	     13.18252891	     -5.82885639	      2.92398363	     25.29574702	     -3.00224560	     -6.24253828	    -68.84392620	     10.34032130	      6.58727332	      1.29504701	    -11.64013645	      1.47311274	      0.81063817
      0.72166667	     -4.55267907	      1.55813686	      2.58927613	     -0.39904180	      1.06571246	      0.27550381	     14.28944732	      1.82119757	     -2.17702472	    -22.26990675	     13.19274651	     -5.72462499	      2.91901244	     25.65517825	     -2.90198464	     -6.43466560	    -68.02758731	     10.56253309	      6.79688977	      1.32274757	    -11.70503435	      1.31761430	      0.96055550
      0.72583333	     -4.51441023	      1.65160506	      2.45946034	     -0.39388405	      1.06663269	      0.27578192	     13.75661238	      1.76069995	     -2.10608690	    -21.87079185	     13.21467008	     -5.61386875	      2.91533884	     25.99062214	     -2.82457528	     -6.63370351	    -67.17352086	     10.77937640	      6.99148182	      1.34801585	    -11.78678972	      1.15996073	      1.14779150
      0.73000000	     -4.46918150	      1.74118643	      2.32514556	     -0.38873460	      1.06753672	      0.27603498	     13.21651541	      1.70159333	     -2.03142841	    -21.46756210	     13.23880234	     -5.50747571	      2.91240490	     26.30011025	     -2.74699737	     -6.82955435	    -66.26425252	     10.97710920	      7.15626524	      1.37156376	    -11.87494642	      1.00943031	      1.35473057
      0.73416667	     -4.40810222	      1.82262035	      2.19181612	     -0.38357932	      1.06841655	      0.27628835	     12.65608437	      1.65013031	     -1.96413844	    -21.05702929	     13.29709597	     -5.40183579	      2.90951064	     26.57785081	     -2.67896359	     -7.02346667	    -65.31180951	     11.15214618	      7.28814373	      1.40355181	    -11.98372117	      0.85868979	      1.64281232
      0.73833333	     -4.40902034	      1.90983352	      2.04732359	     -0.37843020	      1.06912977	      0.27652787	     12.17902040	      1.58640935	     -1.88896033	    -20.67743647	     13.30088857	     -5.28664054	      2.90780487	     26.90392436	     -2.60078651	     -7.22273268	    -64.30946162	     11.32388693	      7.40843416	      1.42302178	    -12.01321572	      0.72478083	      1.79788405
      0.74250000	     -4.36102985	      1.97892968	      1.90783519	     -0.37328337	      1.06988169	      0.27676658	     11.63805574	      1.54303622	     -1.81915094	    -20.27218190	     13.35718910	     -5.17413236	      2.90649982	     27.16363800	     -2.54336810	     -7.41238362	    -63.26510141	     11.47289137	      7.50182994	      1.44944000	    -12.10311990	      0.58468450	      2.06566716
      0.74666667	     -4.34720885	      2.04869503	      1.76403053	     -0.36813828	      1.07051688	      0.27699546	     11.14431378	      1.49489625	     -1.74871410	    -19.88682333	     13.38945875	     -5.05988087	      2.90576651	     27.44234261	     -2.48068610	     -7.59766683	    -62.17357401	     11.60951295	      7.57670276	      1.47280956	    -12.14826914	      0.45743393	      2.27337682
      0.75083333	     -4.31940604	      2.11384729	      1.62041710	     -0.36299760	      1.07113949	      0.27721470	     10.63420270	      1.44943996	     -1.67974683	    -19.49645821	     13.41858494	     -4.94938275	      2.90537872	     27.68699820	     -2.42040077	     -7.77782760	    -61.03228282	     11.72297586	      7.62613420	      1.49248765	    -12.20944046	      0.33845568	      2.46680293
      0.75500000	     -4.30318147	      2.16852966	      1.47959543	     -0.35786411	      1.07167847	      0.27741046	     10.14056256	      1.41142844	     -1.61253197	    -19.11284150	     13.45300513	     -4.83286313	      2.90569432	     27.92974449	     -2.36326668	     -7.93874538	    -59.84964010	     11.82090970	      7.65379679	      1.51295126	    -12.26012562	      0.23214703	      2.67749973
      0.75916667	     -4.31986100	      2.22274662	      1.33752502	     -0.35274120	      1.07210032	      0.27760381	      9.69114818	      1.37119799	     -1.54597337	    -18.74434978	     13.46507176	     -4.71956975	      2.90622653	     28.19165474	     -2.30469281	     -8.09704490	    -58.62354979	     11.89615687	      7.67029124	      1.52387248	    -12.26688206	      0.13603128	      2.80999362
      0.76333333	     -4.30327448	      2.25249339	      1.20724790	     -0.34761960	      1.07251687	      0.27777458	      9.19774317	      1.35532367	     -1.48896763	    -18.36026441	     13.52942355	     -4.61013166	      2.90816822	     28.40561634	     -2.26373553	     -8.22612411	    -57.36382771	     11.95117578	      7.64989057	      1.54261075	    -12.31765928	      0.05136934	      3.04557661
      0.76750000	     -4.34483123	      2.28574830	      1.07437795	     -0.34249614	      1.07277400	      0.27793533	      8.77840758	      1.33228367	     -1.42764309	    -17.99930553	     13.57489062	     -4.49825372	      2.90980879	     28.66313746	     -2.21355352	     -8.34656081	    -56.05768912	     11.98175042	      7.61685854	      1.56009271	    -12.29527221	     -0.02937886	      3.22545489
      0.77166667	     -4.37345483	      2.30859408	      0.94542075	     -0.33737853	      1.07301877	      0.27808254	      8.34522556	      1.31779351	     -1.37198233	    -17.63536446	     13.58784224	     -4.39285261	      2.91083834	     28.88738018	     -2.17007351	     -8.45384828	    -54.70497945	     11.99032619	      7.58849216	      1.56871602	    -12.28433654	     -0.08703408	      3.34304161
      0.77583333	     -4.38388822	      2.32311169	      0.82741664	     -0.33226874	      1.07321061	      0.27820883	      7.89041126	      1.31028507	     -1.32740700	    -17.27114954	     13.66659525	     -4.28605565	      2.91365984	     29.07847429	     -2.12591566	     -8.53663540	    -53.31907012	     11.97943538	      7.50528115	      1.58405074	    -12.29961576	     -0.14524370	      3.53454911
      0.78000000	     -4.44264241	      2.32569601	      0.71071139	     -0.32716292	      1.07327516	      0.27832496	      7.49473038	      1.31374042	     -1.27456822	    -16.91835796	     13.68958976	     -4.18066467	      2.91502416	     29.30435927	     -2.08878449	     -8.60093275	    -51.89075520	     11.94815795	      7.45497144	      1.59212133	    -12.25768193	     -0.18040843	      3.64884099
      0.78416667	     -4.47751447	      2.31166720	      0.60568384	     -0.32206085	      1.07332214	      0.27840900	      7.06618506	      1.33315209	     -1.22936265	    -16.55334149	     13.76397874	     -4.08574871	      2.91741459	     29.48969498	     -2.05710527	     -8.63459443	    -50.42900943	     11.89648608	      7.33837442	      1.60974363	    -12.24611046	     -0.20098750	      3.83468050
      0.78833333	     -4.52610595	      2.29946956	      0.50345973	     -0.31695959	      1.07329002	      0.27849689	      6.65878812	      1.34906361	     -1.18677055	    -16.20217202	     13.79492093	     -3.99103165	      2.91821137	     29.66907672	     -2.02301655	     -8.66334512	    -48.92237165	     11.82444770	      7.27415989	      1.61849585	    -12.21343277	     -0.21840528	      3.93500865
      0.79250000	     -4.59802218	      2.26783376	      0.41286845	     -0.31185480	      1.07314655	      0.27854440	      6.27636491	      1.38368969	     -1.14784740	    -15.85441162	     13.85931571	     -3.90392679	      2.91940911	     29.86011509	     -1.99489304	     -8.65428103	    -47.38769582	     11.73930885	      7.16377642	      1.62971394	    -12.15212956	     -0.21012222	      4.05814888
      0.79666667	     -4.65498396	      2.22929790	      0.32890770	     -0.30675356	      1.07298317	      0.27857837	      5.87433727	      1.42459611	     -1.11157595	    -15.50061306	     13.93320668	     -3.81560217	      2.91992990	     30.01648932	     -1.96720363	     -8.62593481	    -45.81564399	     11.63761928	      7.04178210	      1.64645552	    -12.11009122	     -0.19450222	      4.18538762
      0.80083333	     -4.74100247	      2.18540211	      0.25098794	     -0.30164648	      1.07270787	      0.27860476	      5.50795761	      1.47034015	     -1.08113907	    -15.15788611	     13.97883656	     -3.73446119	      2.91931596	     30.18699754	     -1.94218944	     -8.58653397	    -44.21012982	     11.51991554	      6.96520202	      1.65690200	    -12.03813204	     -0.16895121	      4.27249796
